<svg width="50" height="51" viewBox="0 0 50 51" fill="none" xmlns="http://www.w3.org/2000/svg">
<path d="M34.5832 29.75C34.1665 29.5375 31.4582 28.2625 31.0415 28.05C30.6248 27.8375 30.2082 27.8375 29.7915 28.2625C29.3748 28.6875 28.5415 29.9625 28.1248 30.3875C27.9165 30.8125 27.4998 30.8125 27.0832 30.6C25.6248 29.9625 24.1665 29.1125 22.9165 28.05C21.8748 26.9875 20.8332 25.7125 19.9998 24.4375C19.7915 24.0125 19.9998 23.5875 20.2082 23.375C20.4165 23.1625 20.6248 22.7375 21.0415 22.525C21.2498 22.3125 21.4582 21.8875 21.4582 21.675C21.6665 21.4625 21.6665 21.0375 21.4582 20.825C21.2498 20.6125 20.2082 18.0625 19.7915 17C19.5832 15.5125 19.1665 15.5125 18.7498 15.5125H17.7082C17.2915 15.5125 16.6665 15.9375 16.4582 16.15C15.2082 17.425 14.5832 18.9125 14.5832 20.6125C14.7915 22.525 15.4165 24.4375 16.6665 26.1375C18.9582 29.5375 21.8748 32.3 25.4165 34C26.4582 34.425 27.2915 34.85 28.3332 35.0625C29.3748 35.4875 30.4165 35.4875 31.6665 35.275C33.1248 35.0625 34.3748 34 35.2082 32.725C35.6248 31.875 35.6248 31.025 35.4165 30.175L34.5832 29.75ZM39.7915 10.4125C31.6665 2.12502 18.5415 2.12502 10.4165 10.4125C3.74984 17.2125 2.49984 27.625 7.08317 35.9125L4.1665 46.75L15.2082 43.775C18.3332 45.475 21.6665 46.325 24.9998 46.325C36.4582 46.325 45.6248 36.975 45.6248 25.2875C45.8332 19.7625 43.5415 14.45 39.7915 10.4125ZM34.1665 40.1625C31.4582 41.8625 28.3332 42.925 24.9998 42.925C21.8748 42.925 18.9582 42.075 16.2498 40.5875L15.6248 40.1625L9.1665 41.8625L10.8332 35.4875L10.4165 34.85C5.4165 26.35 7.9165 15.725 16.0415 10.4125C24.1665 5.10002 34.5832 7.86252 39.5832 15.9375C44.5832 24.225 42.2915 35.0625 34.1665 40.1625Z" fill="#25D366"/>
</svg>
